<svg width="16" height="15" viewBox="0 0 16 15" fill="none" xmlns="http://www.w3.org/2000/svg">
<path d="M14.4096 1.26603C12.684 -0.422332 9.92546 -0.421965 8.20035 1.26686L0.965085 8.50216C-0.343195 9.84128 -0.318193 11.9874 1.02093 13.2957C2.33802 14.5825 4.44151 14.5825 5.75861 13.2957L12.3103 6.74403C13.162 5.89231 13.162 4.51136 12.3103 3.65963C11.4585 2.80791 10.0776 2.80791 9.22585 3.65963L2.95905 9.92641C2.74047 10.1527 2.74675 10.5134 2.97307 10.732C3.19385 10.9452 3.54386 10.9452 3.76464 10.732L10.0314 4.46519C10.447 4.06709 11.1066 4.08127 11.5047 4.49684C11.8907 4.89985 11.8907 5.53546 11.5047 5.93848L4.95305 12.4901C4.06798 13.3626 2.64316 13.3524 1.77068 12.4673C0.907001 11.5912 0.907001 10.1838 1.77068 9.30772L9.00594 2.07242C10.2947 0.783167 12.3846 0.7828 13.6738 2.07155C14.9631 3.3603 14.9635 5.45021 13.6747 6.73946L6.43942 13.9748C6.20044 14.1794 6.1726 14.5391 6.37726 14.778C6.58192 15.017 6.94157 15.0449 7.18055 14.8402C7.20285 14.8211 7.22361 14.8003 7.24271 14.778L14.478 7.54275C16.1924 5.7906 16.1618 2.98039 14.4096 1.26603Z" fill="white"/>
</svg>
