<svg fill="none" height="41" viewBox="0 0 41 41" width="41" xmlns="http://www.w3.org/2000/svg"><circle cx="21" cy="21" fill="#ffe200" r="19" stroke="#000" stroke-width="2"/><circle cx="20" cy="20" fill="#ffe200" r="19" stroke="#000" stroke-width="2"/><path clip-rule="evenodd" d="m30 23.1459c0 1.6333-1.2874 2.9624-2.8695 2.9624h-1.0591c-.5207 0-.9427.4356-.9427.9732v3.9185l-4.4622-4.6066c-.1767-.1825-.4165-.2851-.6665-.2851h-7.1305c-1.5821 0-2.8695-1.3291-2.8695-2.9624v-9.1836c0-1.6332 1.2874-2.9623 2.8695-2.9623h14.261c1.5821 0 2.8695 1.3291 2.8695 2.9623z" fill="#000" fill-rule="evenodd"/><path clip-rule="evenodd" d="m29 22.9944c0 1.3439-1.0943 2.4375-2.439 2.4375h-.9003c-.4426 0-1.1607.3829-1.1607.8252v2.7429l-3.4334-3.3334c-.1503-.1502-.3541-.2347-.5666-.2347h-6.061c-1.3447 0-2.439-1.0936-2.439-2.4375v-7.5568c0-1.3439 1.0943-2.4376 2.439-2.4376h12.122c1.3447 0 2.439 1.0937 2.439 2.4376z" fill="#fff" fill-rule="evenodd"/><g fill="#000"><circle cx="15.5" cy="18.5" r="1.5"/><circle cx="20.5" cy="18.5" r="1.5"/><circle cx="25.5" cy="18.5" r="1.5"/></g></svg>