<svg fill="none" height="36" viewBox="0 0 27 36" width="27" xmlns="http://www.w3.org/2000/svg"><path d="m12.542 18.3311c0-.2286.0205-.4483.0615-.6592.0469-.211.1113-.4043.1934-.5801.082-.1816.1816-.3398.2988-.4746s.249-.2402.3955-.3164l2.1973-1.1162v-2.9971h-3.6035v1.8721h-2.10062v-1.1514c0-.3105.04392-.6006.13182-.8701s.2051-.5039.3516-.7031c.1523-.2051.3281-.3662.5273-.4834.2051-.1172.4248-.1758.6592-.1758h4.4648c.2286 0 .4454.0586.6504.1758.2051.1172.3809.2783.5274.4834.1523.1992.2724.4336.3603.7031s.1319.5596.1319.8701v1.8281c0 .2227-.0264.4424-.0791.6592-.0469.2168-.1172.416-.211.5977-.0879.1816-.1963.3427-.3252.4834-.123.1406-.2578.249-.4043.3252l-2.1357 1.0898v1.5293h-2.0918zm-.4219 4.289c0-.2051.0381-.3955.1143-.5713.0761-.1816.1816-.3398.3164-.4746.1347-.1347.29-.2402.4658-.3164.1816-.082.375-.123.5801-.123s.3955.041.5713.123c.1816.0762.3398.1817.4746.3164.1347.1348.2402.293.3164.4746.082.1758.123.3662.123.5713s-.041.3985-.123.5801c-.0762.1758-.1817.331-.3164.4658-.1348.1348-.293.2402-.4746.3164-.1817.0762-.3721.1143-.5713.1143-.2051 0-.3985-.0381-.5801-.1143-.1758-.0762-.3311-.1816-.4658-.3164-.1348-.1348-.2403-.29-.3164-.4658-.0762-.1816-.1143-.375-.1143-.5801z" fill="#fff"/><circle cx="13.5" cy="16.5" r="13" stroke="#fff"/></svg>