<svg fill="none" height="41" viewBox="0 0 41 41" width="41" xmlns="http://www.w3.org/2000/svg"><circle cx="21" cy="21" fill="#ffe200" r="19" stroke="#000" stroke-width="2"/><circle cx="20" cy="20" fill="#ffe200" r="19" stroke="#000" stroke-width="2"/><path d="m30.3781 25.1458-3.0701-3.0702c-1.0965-1.0965-2.9606-.6578-3.3992.7676-.3289.9868-1.4254 1.5351-2.4122 1.3157-2.193-.5482-5.1535-3.3991-5.7018-5.7017-.3289-.9869.329-2.0834 1.3158-2.4123 1.4255-.4386 1.864-2.3026.7676-3.3991l-3.0702-3.07014c-.8772-.76755-2.193-.76755-2.9605 0l-2.08335 2.08334c-2.08333 2.193.2193 8.0043 5.37275 13.1578 5.1535 5.1535 10.9649 7.5658 13.1579 5.3728l2.0833-2.0833c.7676-.8772.7676-2.193 0-2.9605z" fill="#000"/><path d="m30.4755 26.337-.9746-1.337c-.8968-.8972-2.4212-.5383-2.7798.6279-.269.8075-1.1658 1.2561-1.9728 1.0766-3.2367-.6926-9.2474-5.7045-9.2474-8.7045-.2691-.8075.7863-2.1006 1.5933-2.3697 1.1657-.3588 1.4067-1.6303.6403-2.6473l-1.3389-1.483c-.7173-.628-1.7934-.628-2.4211 0l-1.7037 1.7045c-1.7038 1.7943-1.5099 5.916 2.7046 10.1325 3.5001 5 11.232 8.4572 13.0255 6.663l1.7037-1.7046c.6277-.7177 1.3986-1.3304.7709-1.9584z" fill="#fff"/></svg>