<svg width="41" height="41" viewBox="0 0 41 41" fill="none" xmlns="http://www.w3.org/2000/svg">
<circle cx="21" cy="21" r="19" fill="#FFE200" stroke="black" stroke-width="2"/>
<circle cx="20" cy="20" r="19" fill="#FFE200" stroke="black" stroke-width="2"/>
<path fill-rule="evenodd" clip-rule="evenodd" d="M30 23.1459C30 24.7792 28.7126 26.1083 27.1305 26.1083H26.0714C25.5507 26.1083 25.1287 26.5439 25.1287 27.0815V31L20.6665 26.3934C20.4898 26.2109 20.25 26.1083 20 26.1083H12.8695C11.2874 26.1083 10 24.7792 10 23.1459V13.9623C10 12.3291 11.2874 11 12.8695 11H27.1305C28.7126 11 30 12.3291 30 13.9623V23.1459Z" fill="black"/>
<path fill-rule="evenodd" clip-rule="evenodd" d="M29 22.9944C29 24.3383 27.9057 25.4319 26.561 25.4319H25.6607C25.2181 25.4319 24.5 25.8148 24.5 26.2571V29L21.0666 25.6666C20.9163 25.5164 20.7125 25.4319 20.5 25.4319H14.439C13.0943 25.4319 12 24.3383 12 22.9944V15.4376C12 14.0937 13.0943 13 14.439 13H26.561C27.9057 13 29 14.0937 29 15.4376V22.9944Z" fill="white"/>
<circle cx="15.5" cy="18.5" r="1.5" fill="black"/>
<circle cx="20.5" cy="18.5" r="1.5" fill="black"/>
<circle cx="25.5" cy="18.5" r="1.5" fill="black"/>
</svg>
