<svg width="41" height="41" viewBox="0 0 41 41" fill="none" xmlns="http://www.w3.org/2000/svg">
<circle cx="21" cy="21" r="19" fill="#FFE200" stroke="black" stroke-width="2"/>
<circle cx="20" cy="20" r="19" fill="#FFE200" stroke="black" stroke-width="2"/>
<path d="M30.3781 25.1458L27.308 22.0756C26.2115 20.9791 24.3474 21.4178 23.9088 22.8432C23.5799 23.83 22.4834 24.3783 21.4966 24.1589C19.3036 23.6107 16.3431 20.7598 15.7948 18.4572C15.4659 17.4703 16.1238 16.3738 17.1106 16.0449C18.5361 15.6063 18.9746 13.7423 17.8782 12.6458L14.808 9.57566C13.9308 8.80811 12.615 8.80811 11.8475 9.57566L9.76415 11.659C7.68082 13.852 9.98345 19.6633 15.1369 24.8168C20.2904 29.9703 26.1018 32.3826 28.2948 30.1896L30.3781 28.1063C31.1457 27.2291 31.1457 25.9133 30.3781 25.1458Z" fill="black"/>
<path d="M30.4755 26.337L29.5009 25C28.6041 24.1028 27.0797 24.4617 26.7211 25.6279C26.4521 26.4354 25.5553 26.884 24.7483 26.7045C21.5116 26.0119 15.5009 21 15.5009 18C15.2318 17.1925 16.2872 15.8994 17.0942 15.6303C18.2599 15.2715 18.5009 14 17.7345 12.983L16.3956 11.5C15.6783 10.872 14.6022 10.872 13.9745 11.5L12.2708 13.2045C10.567 14.9988 10.7609 19.1205 14.9754 23.337C18.4755 28.337 26.2074 31.7942 28.0009 30L29.7046 28.2954C30.3323 27.5777 31.1032 26.965 30.4755 26.337Z" fill="white"/>
</svg>
