<svg width="41" height="41" viewBox="0 0 41 41" fill="none" xmlns="http://www.w3.org/2000/svg">
<circle cx="21" cy="21" r="19" fill="#FFE200" stroke="black" stroke-width="2"/>
<circle cx="20" cy="20" r="19" fill="#FFE200" stroke="black" stroke-width="2"/>
<path fill-rule="evenodd" clip-rule="evenodd" d="M14.5459 28.8449C14.7148 28.9485 14.9033 29 15.0918 29C15.2803 29 15.4688 28.9485 15.6377 28.8449L28.4541 21.0024C28.7919 20.7958 29 20.4133 29 20.0002C29 19.5865 28.7919 19.2046 28.4541 18.998L15.6377 11.1549C15.2999 10.9484 14.8837 10.9484 14.5459 11.1549C14.2081 11.3615 14 11.744 14 12.1571V27.8428C14 28.2564 14.2081 28.6384 14.5459 28.8449Z" fill="black"/>
<path fill-rule="evenodd" clip-rule="evenodd" d="M16.9367 26.3627C17.0718 26.4317 17.3492 26.5 17.5 26.5C17.6508 26.5 17.6751 26.4317 17.8102 26.3627L27.5633 20.6682C27.8335 20.5305 28 20.2756 28 20.0001C28 19.7244 27.8335 19.4697 27.5633 19.332L17.8102 13.3319C17.5399 13.1942 17.2069 13.1942 16.9367 13.3319C16.6665 13.4697 16.5 13.7246 16.5 14.0001V25.6946C16.5 25.9703 16.6665 26.225 16.9367 26.3627Z" fill="white"/>
</svg>
