<svg fill="none" height="41" viewBox="0 0 41 41" width="41" xmlns="http://www.w3.org/2000/svg"><circle cx="21" cy="21" fill="#ffe200" r="19" stroke="#000" stroke-width="2"/><circle cx="20" cy="20" fill="#ffe200" r="19" stroke="#000" stroke-width="2"/><g clip-rule="evenodd" fill-rule="evenodd"><path d="m14.5459 28.8449c.1689.1036.3574.1551.5459.1551s.377-.0515.5459-.1551l12.8164-7.8425c.3378-.2066.5459-.5891.5459-1.0022 0-.4137-.2081-.7956-.5459-1.0022l-12.8164-7.8431c-.3378-.2065-.754-.2065-1.0918 0-.3378.2066-.5459.5891-.5459 1.0022v15.6857c0 .4136.2081.7956.5459 1.0021z" fill="#000"/><path d="m16.9367 26.3627c.1351.069.4125.1373.5633.1373s.1751-.0683.3102-.1373l9.7531-5.6945c.2702-.1377.4367-.3926.4367-.6681 0-.2757-.1665-.5304-.4367-.6681l-9.7531-6.0001c-.2703-.1377-.6033-.1377-.8735 0-.2702.1378-.4367.3927-.4367.6682v11.6945c0 .2757.1665.5304.4367.6681z" fill="#fff"/></g></svg>