<svg width="41" height="41" viewBox="0 0 41 41" fill="none" xmlns="http://www.w3.org/2000/svg">
<path d="M21.303 40.9999C32.1813 40.9999 41 32.1813 41 21.3029C41 10.4246 32.1813 1.60596 21.303 1.60596C10.4247 1.60596 1.60602 10.4246 1.60602 21.3029C1.60602 32.1813 10.4247 40.9999 21.303 40.9999Z" fill="#F9C113"/>
<path d="M20.0909 39.1818C30.6345 39.1818 39.1818 30.6345 39.1818 20.0909C39.1818 9.54729 30.6345 1 20.0909 1C9.54729 1 1 9.54729 1 20.0909C1 30.6345 9.54729 39.1818 20.0909 39.1818Z" fill="black" stroke="#F9C113"/>
<path d="M24.6261 31.3033H7.66663L9.31928 27.0321L23.3451 14.0461L23.5462 13.603H14.8806L16.9355 8.27295H33.1212L31.4685 12.6105L17.6438 25.4947L17.4078 25.9733H26.6461L24.6261 31.3033Z" stroke="white" stroke-miterlimit="10" stroke-linecap="round" stroke-linejoin="round"/>
<path d="M30.6971 17.3635H8.27283V22.212H30.6971V17.3635Z" fill="black"/>
<path d="M11.6824 19.914L12.5152 17.8249C12.1696 17.6334 11.328 17.3635 10.4952 17.3635C8.93593 17.3635 8.14744 17.8423 7.57157 19.296L7.26149 20.0707C6.7122 21.4547 7.32351 22.212 8.679 22.212C9.31689 22.212 10.3446 22.0814 10.8496 21.977L11.3546 20.68C10.6901 20.7409 9.84845 20.8367 9.28145 20.8367C8.97137 20.8367 8.99794 20.6365 9.10426 20.3405L9.55609 19.2263C9.67126 18.9391 9.75986 18.7389 10.2383 18.7389C10.4155 18.7389 10.5572 18.7911 10.6724 18.8607L10.2294 19.9749L11.6824 19.914Z" fill="white"/>
<path d="M16.477 17.9692H13.7345L11.9091 22.2117H15.0184C16.0141 22.2117 16.8002 22.0293 17.1932 21.1094C17.4727 20.4592 17.2631 20.1579 16.9137 20.023C17.3242 19.8645 17.6648 19.5948 17.8483 19.1587C18.3024 18.104 17.4028 17.9692 16.477 17.9692ZM14.966 18.9763H16.0578C16.2587 18.9763 16.2849 19.0953 16.2325 19.2301C16.1451 19.4362 16.0141 19.5393 15.8482 19.5393H14.7215L14.966 18.9763ZM15.6211 20.7764C15.5337 20.9746 15.4115 21.0777 15.2193 21.0777H14.0577L14.311 20.483H15.4988C15.6735 20.483 15.7084 20.5781 15.6211 20.7764Z" fill="white"/>
<path d="M23.4243 17.9692H20.69C19.6229 17.9692 19.006 18.3261 18.6642 19.1349L18.6392 19.1984C18.3808 19.8248 18.5975 20.1816 19.3394 20.2292L19.3144 20.2847C18.4891 20.3164 18.0306 20.5781 17.7722 21.2125L17.3637 22.2117H19.031L19.4478 21.1967C19.5395 20.9746 19.7063 20.9112 19.9147 20.9112H20.4982L19.9647 22.2117H21.682L23.4243 17.9692ZM20.9234 19.8962H20.2981C20.0647 19.8962 19.998 19.8169 20.0981 19.5869L20.1814 19.3807C20.2815 19.1349 20.4149 19.0556 20.6733 19.0556H21.2652L20.9234 19.8962Z" fill="white"/>
<path d="M24.5187 22.212C25.8304 22.212 26.543 21.8737 26.8911 20.9197C27.2231 19.9916 26.8507 19.8008 26.5511 19.7054C26.883 19.6013 27.3203 19.3758 27.5389 18.7686C27.9114 17.7452 27.4498 17.3635 26.4134 17.3635C25.6199 17.3635 24.8506 17.4503 24.5187 17.511L24.0733 18.7773C24.5915 18.7426 25.0126 18.7079 25.5713 18.7079C25.8547 18.7079 25.9357 18.7773 25.8466 19.0202C25.7656 19.2283 25.6685 19.3324 25.4093 19.3324H24.4215L24.0733 20.2605H25.1017C25.377 20.2605 25.4417 20.3212 25.3689 20.538C25.2798 20.7549 25.1745 20.8503 24.9154 20.8503C24.211 20.8503 23.798 20.8242 23.296 20.7896L22.8182 22.0472C23.1178 22.1079 23.628 22.212 24.5187 22.212Z" fill="white"/>
<path d="M27.0606 22.2117H30.4487C31.7497 22.2117 32.4517 21.8707 32.9477 20.8002C33.4251 19.7455 32.8916 19.3332 31.6655 19.3332H30.299L30.9261 17.9692H29.0074L27.0606 22.2117ZM29.5034 21.0698L29.7936 20.4195H30.8793C31.1601 20.4195 31.2443 20.483 31.1226 20.7447C31.0009 21.0063 30.8512 21.0698 30.5611 21.0698H29.5034Z" fill="white"/>
</svg>
