<svg width="398" height="244" viewBox="0 0 398 244" fill="none" xmlns="http://www.w3.org/2000/svg">
    <path d="M383.278 157.09L389.078 177.803L345.211 218.321L70.9961 234.467L383.278 157.09Z" fill="#FF8F00"/>
    <path d="M0 32.6522L15.7033 243.821L339.403 211.345L391.495 165.27L373.051 33.9991L313.339 0L0 32.6522ZM324.421 96.365C324.887 93.9475 326.06 91.7226 327.791 89.9717C329.522 88.2207 331.733 87.0223 334.145 86.528C336.557 86.0337 339.061 86.2657 341.341 87.1947C343.621 88.1237 345.575 89.7079 346.954 91.747C348.334 93.7862 349.078 96.1886 349.092 98.6506C349.107 101.113 348.391 103.524 347.035 105.579C345.679 107.634 343.744 109.24 341.475 110.196C339.206 111.151 336.704 111.412 334.287 110.946C331.045 110.32 328.185 108.433 326.335 105.698C324.485 102.964 323.796 99.6068 324.421 96.365Z"
          fill="#FBDF00"/>
    <path d="M331.499 125.392C338.674 126.775 346.105 125.329 352.238 121.356C358.37 117.383 362.727 111.192 364.396 104.078C364.342 104.451 364.282 104.82 364.211 105.195C362.757 112.532 358.457 118.994 352.252 123.169C346.047 127.344 338.441 128.893 331.097 127.476C323.754 126.059 317.27 121.791 313.064 115.607C308.857 109.423 307.271 101.825 308.651 94.4744C308.723 94.1012 308.807 93.733 308.898 93.3672C307.801 100.591 309.541 107.96 313.755 113.93C317.969 119.899 324.329 124.007 331.504 125.392"
          fill="#FF8F00"/>
    <path d="M341.486 73.6477C326.517 70.7587 311.978 80.5306 308.463 95.6012C308.523 95.2206 308.582 94.84 308.656 94.4594C311.689 78.7462 326.584 68.4108 341.926 71.3716C357.269 74.3323 367.251 89.4647 364.216 105.168C364.142 105.551 364.055 105.927 363.969 106.3C366.314 91.0044 356.456 76.5245 341.479 73.6354"
          fill="#FFF200"/>
    <path d="M375.359 59.1776C375.325 60.877 375.436 62.5761 375.693 64.2564C376.031 66.3225 376.568 68.349 377.099 70.3731C369.267 67.9857 360.541 73.4376 355.393 78.8401C352.728 76.424 349.623 74.5421 346.249 73.2968C354.313 65.1856 365.891 58.3621 375.372 59.1776"
          fill="#FF8F00"/>
    <path d="M348.826 96.1376C348.317 93.7437 347.114 91.5528 345.368 89.8386C343.621 88.1244 341.408 86.9629 339.005 86.4991C338.42 86.3922 337.827 86.3261 337.233 86.3014C338.698 82.231 341.973 77.5872 346.236 73.2969C349.613 74.5407 352.72 76.4217 355.388 78.8378C355.291 78.9391 355.193 79.0404 355.096 79.1442C350.912 83.6446 349.377 91.5235 348.821 96.145"
          fill="#FF8F00"/>
    <path d="M381.832 104.666C381.832 104.666 397.117 97.4252 397.938 87.2109C398.758 76.9966 391.436 61.1747 375.987 57.6183C360.538 54.062 337.71 74.0111 335.014 86.3805C332.317 98.7499 346.876 97.922 346.876 97.922C346.876 97.922 347.279 83.8968 353.46 77.2487C359.641 70.6006 371.358 63.6411 380.287 71.127C389.216 78.6129 386.263 84.9669 384.38 85.7478C382.497 86.5288 379.884 89.0472 379.884 89.0472L381.832 104.666Z"
          fill="#FBDF00"/>
    <path d="M334.203 85.3598C336.899 72.9904 359.725 53.0388 375.174 56.5976C381.98 58.162 387.205 62.1088 390.855 66.9058C387.256 62.5759 382.301 59.0715 375.987 57.6183C360.536 54.0595 337.71 74.0111 335.014 86.3805C334.304 89.6403 334.798 91.9782 335.903 93.6612C334.257 91.9461 333.335 89.3388 334.203 85.3598Z"
          fill="#FFF200"/>
    <path d="M156.756 118.336C183.497 114.809 194.089 105.324 200.527 78.5584L204.106 63.898C210.621 37.7011 203.288 30.1189 177.701 33.4997C150.961 37.024 140.598 46.482 134.029 73.1435L130.451 87.8039C123.936 114.001 131.286 121.702 156.756 118.343V118.336ZM155.521 86.7288L160.463 67.3135C162.327 59.2122 164.803 56.6568 172.18 55.6979C179.671 54.7093 180.998 56.7631 179.019 64.8816L174.19 84.2797C172.24 92.6256 169.647 95.1959 162.272 96.1696C154.898 97.1433 153.568 95.0871 155.518 86.7412"
          fill="black"/>
    <path d="M125.612 90.2061C125.555 77.3153 116.524 74.6363 102.002 76.5516L99.6965 76.8556L103.856 64.8149L129.672 61.4118L134.692 40.6891L88.81 46.7366L73.8605 92.5614L77.8889 95.5468L92.6431 93.6018C97.4846 92.9642 100.841 92.6405 100.811 96.8641C100.905 102.012 98.3397 105.635 91.3012 106.562C83.2095 107.618 75.0611 108.181 66.901 108.247L61.7407 127.809C69.7901 128.387 77.234 128.814 89.4526 127.203C116.075 123.699 125.795 107.642 125.612 90.2061Z"
          fill="black"/>
    <path d="M155.921 123.38C129.18 126.906 118.82 136.362 112.249 163.026L108.673 177.694C102.156 203.891 109.506 211.589 134.976 208.23C161.716 204.706 172.309 195.218 178.747 168.456L182.325 153.795C188.84 127.598 181.507 120.014 155.921 123.397V123.38ZM157.243 154.767L152.412 174.147C150.464 182.496 147.872 185.066 140.494 186.037C133.117 187.008 131.793 184.957 133.74 176.609L138.683 157.196C140.546 149.092 143.025 146.539 150.4 145.566C157.893 144.577 159.218 146.631 157.241 154.749"
          fill="black"/>
    <path d="M232.359 108.368C259.099 104.842 269.692 95.3566 276.13 68.5913L279.708 53.9309C286.223 27.7464 278.89 20.1517 253.304 23.5326C226.563 27.0568 216.201 36.5149 209.632 63.1789L206.053 77.8368C199.539 104.034 206.889 111.735 232.359 108.376V108.368ZM231.123 76.7617L236.066 57.3488C237.929 49.2451 240.406 46.6921 247.783 45.7184C255.274 44.7299 256.601 46.7836 254.621 54.9021L249.792 74.3002C247.842 82.6461 245.252 85.2164 237.875 86.1901C230.498 87.1638 229.171 85.1076 231.121 76.7617"
          fill="black"/>
    <path d="M305.596 113.415C305.267 110.909 304.164 109.14 302.287 108.109C300.411 107.078 297.671 106.801 294.067 107.279L268.394 110.662L258.509 150.882L256.104 151.198L257.906 143.821C264.42 117.624 257.088 110.039 231.501 113.422C204.761 116.949 194.401 126.405 187.829 153.069L184.253 167.729C177.758 193.906 185.108 201.614 210.578 198.256C237.319 194.732 247.911 185.244 254.349 158.481L254.935 156.089L257.295 155.777L256.487 159.158L271.612 157.166L272.418 153.788L281.11 152.641L282.276 147.753L273.654 148.89L273.97 147.595L284.508 146.206C288.067 145.736 291.025 144.847 293.383 143.539C295.78 142.19 297.799 140.26 299.255 137.926C300.815 135.493 302.101 132.306 303.113 128.367L304.89 121.24C305.649 118.215 305.885 115.607 305.596 113.418V113.415ZM232.846 144.782L228.014 164.18C226.067 172.529 223.474 175.096 216.097 176.07C208.72 177.044 207.395 174.99 209.343 166.642L214.286 147.229C216.149 139.125 218.628 136.572 226.002 135.598C233.496 134.61 234.82 136.664 232.843 144.782H232.846ZM289.411 124.252L288.059 129.86C287.699 131.343 287.217 132.347 286.614 132.872C286.011 133.398 284.979 133.757 283.519 133.95L277.094 134.8L280.307 121.773L286.732 120.923C287.691 120.797 288.398 120.809 288.86 120.958C289.084 121.029 289.281 121.167 289.424 121.353C289.567 121.54 289.649 121.766 289.658 122.001C289.721 122.457 289.639 123.211 289.411 124.262"
          fill="black"/>
    <path d="M80.3207 133.347C53.5776 136.871 43.2175 146.329 36.646 172.998L33.0699 187.656C26.5528 213.853 33.9028 221.554 59.3731 218.195C86.1137 214.671 96.7061 205.183 103.144 178.406L106.723 163.748C113.237 137.551 105.905 129.966 80.3182 133.349L80.3207 133.347ZM81.6404 164.719L76.8088 184.119C74.8614 192.468 72.2689 195.036 64.8917 196.009C57.5146 196.983 56.1899 194.929 58.1374 186.581L63.0802 167.168C64.9436 159.064 67.4224 156.511 74.7971 155.538C82.2904 154.549 83.6151 156.603 81.6379 164.721"
          fill="black"/>
</svg>
