<svg width="17" height="20" viewBox="0 0 17 20" fill="none" xmlns="http://www.w3.org/2000/svg">
    <path d="M10.4795 20H3.09358C1.38773 20 0 18.5982 0 16.875V6.28906C0 4.56589 1.38773 3.16406 3.09358 3.16406H10.4795C12.1854 3.16406 13.5731 4.56589 13.5731 6.28906V16.875C13.5731 18.5982 12.1854 20 10.4795 20ZM3.09358 4.72656C2.24073 4.72656 1.54679 5.42755 1.54679 6.28906V16.875C1.54679 17.7365 2.24073 18.4375 3.09358 18.4375H10.4795C11.3324 18.4375 12.0263 17.7365 12.0263 16.875V6.28906C12.0263 5.42755 11.3324 4.72656 10.4795 4.72656H3.09358ZM16.6667 14.9219V3.125C16.6667 1.40182 15.2789 0 13.5731 0H4.9884C4.56122 0 4.215 0.349731 4.215 0.78125C4.215 1.21277 4.56122 1.5625 4.9884 1.5625H13.5731C14.4259 1.5625 15.1199 2.26349 15.1199 3.125V14.9219C15.1199 15.3534 15.4661 15.7031 15.8933 15.7031C16.3204 15.7031 16.6667 15.3534 16.6667 14.9219Z" fill="#161616"/>
</svg>
